<svg width="81" height="55" viewBox="0 0 81 55" fill="none" xmlns="http://www.w3.org/2000/svg">
<rect width="81" height="55" fill="none"/>
<g clip-path="url(#clip0_0_1)">
<path d="M33.3569 0.579102L49.8039 1.0051C50.1339 1.0141 50.4489 1.1491 50.6839 1.3851L60.6369 11.3381C61.521 12.2191 62.0394 13.4019 62.0879 14.6491L62.6019 27.5191C62.6219 28.0221 63.0349 28.4141 63.5389 28.4131L73.1339 28.3631C74.3094 28.3634 75.4368 28.83 76.2686 29.6605C77.1004 30.491 77.5688 31.6176 77.5709 32.7931V33.0531C77.5709 34.2171 77.1179 35.3121 76.2939 36.1351C75.8899 36.5411 75.4094 36.863 74.8803 37.0822C74.3511 37.3014 73.7837 37.4135 73.2109 37.4121H57.4409C55.0939 37.4121 53.0479 35.3671 53.0479 33.0191L53.0469 24.6141L40.9969 24.6051L41.0069 39.7751C41.0079 40.2011 40.7969 40.6011 40.4469 40.8421L22.3489 53.2521C20.9859 54.1011 19.3909 54.2851 17.9229 53.7891C17.1719 53.5358 16.4895 53.1125 15.9289 52.5521C15.4049 52.0267 14.9983 51.3962 14.7359 50.7021C13.8609 48.4091 14.8099 45.7681 16.9919 44.4251L29.2949 35.4521L29.5469 24.1721L15.9909 24.6141C15.8141 24.6202 15.6379 24.5899 15.4733 24.525C15.3086 24.4602 15.1591 24.3622 15.0339 24.2371L2.23692 11.4391C1.23692 10.4401 0.686921 9.0591 0.723921 7.6471C0.739801 6.9442 0.900166 6.25208 1.19504 5.61383C1.48991 4.97557 1.91298 4.40482 2.43792 3.9371C4.47992 2.0971 7.67192 2.2491 9.70492 4.2821L18.2809 12.8581L47.7249 11.2231L45.5919 9.0901L33.3289 9.4371C32.7214 9.46096 32.1156 9.35965 31.5489 9.13945C30.9822 8.91925 30.4669 8.58488 30.0349 8.1571L30.0189 8.1421C29.5857 7.71071 29.247 7.19395 29.0243 6.62464C28.8015 6.05533 28.6996 5.44592 28.7249 4.8351C28.8049 2.4881 30.8849 0.580102 33.3569 0.579102ZM67.1369 12.3531C70.1619 9.3281 75.0819 9.3281 78.1069 12.3531C81.1309 15.3781 81.1309 20.2971 78.1069 23.3231C75.0819 26.3471 70.1619 26.3471 67.1369 23.3231C64.1129 20.2971 64.1119 15.3781 67.1369 12.3531Z" fill="#29BA66"/>
</g>
<defs>
<clipPath id="clip0_0_1">
<rect width="81" height="55" fill="white"/>
</clipPath>
</defs>
</svg>
