<svg width="76" height="77" viewBox="0 0 76 77" fill="none" xmlns="http://www.w3.org/2000/svg">
<path d="M60.9099 71.8461L73.2239 51.9541C76.5409 46.5941 77.0039 38.1361 70.9139 32.0461L44.5539 5.68612C40.0969 1.22912 31.9679 -1.15688 24.6459 3.37612L4.75291 15.6901C-0.647087 19.0331 -1.52209 26.5441 2.97391 31.0401C3.92052 31.9817 5.09368 32.6635 6.38034 33.0199C7.66699 33.3764 9.02377 33.3954 10.3199 33.0751L18.1029 31.1301C18.7612 30.9673 19.4503 30.9768 20.1038 31.1578C20.7573 31.3387 21.3531 31.6849 21.8339 32.1631L44.4359 54.7651C45.4059 55.7351 45.8029 57.1651 45.4689 58.4971L43.5239 66.2791C43.2036 67.5759 43.2227 68.9333 43.5795 70.2205C43.9363 71.5077 44.6187 72.6813 45.5609 73.6281C50.0509 78.1181 57.5639 77.2521 60.9099 71.8461ZM36.6829 25.7261L34.7919 23.8341L32.8999 25.7261C32.4596 26.16 31.8656 26.4023 31.2475 26.4C30.6293 26.3978 30.0371 26.1512 29.6 25.7141C29.1628 25.277 28.9163 24.6848 28.914 24.0666C28.9118 23.4484 29.154 22.8544 29.5879 22.4141L31.4799 20.5221L29.5879 18.6311C29.154 18.1908 28.9118 17.5968 28.914 16.9787C28.9163 16.3605 29.1628 15.7683 29.6 15.3312C30.0371 14.894 30.6293 14.6475 31.2475 14.6452C31.8656 14.643 32.4596 14.8852 32.8999 15.3191L34.7919 17.2101L36.6829 15.3191C37.1232 14.8852 37.7172 14.643 38.3354 14.6452C38.9535 14.6475 39.5458 14.894 39.9829 15.3312C40.42 15.7683 40.6666 16.3605 40.6688 16.9787C40.6711 17.5968 40.4288 18.1908 39.9949 18.6311L38.1039 20.5221L39.9949 22.4141C40.4288 22.8544 40.6711 23.4484 40.6688 24.0666C40.6666 24.6848 40.42 25.277 39.9829 25.7141C39.5458 26.1512 38.9535 26.3978 38.3354 26.4C37.7172 26.4023 37.1232 26.16 36.6829 25.7261ZM50.8729 39.9161C50.655 39.6985 50.4822 39.4402 50.3643 39.1557C50.2463 38.8713 50.1856 38.5664 50.1856 38.2585C50.1855 37.9506 50.2462 37.6457 50.3641 37.3613C50.482 37.0768 50.6548 36.8184 50.8726 36.6008C51.0904 36.3832 51.349 36.2106 51.6335 36.093C51.9181 35.9754 52.223 35.915 52.5309 35.9153C52.8388 35.9156 53.1437 35.9766 53.428 36.0948C53.7123 36.213 53.9705 36.3861 54.1879 36.6041C54.6146 37.0462 54.8505 37.6381 54.845 38.2524C54.8394 38.8667 54.5929 39.4542 54.1583 39.8885C53.7238 40.3228 53.1361 40.569 52.5218 40.5742C51.9075 40.5793 51.3147 40.343 50.8729 39.9161ZM50.8729 47.0121C50.4514 46.5692 50.2197 45.9791 50.2273 45.3677C50.2349 44.7563 50.4812 44.1722 50.9137 43.7399C51.3461 43.3076 51.9303 43.0615 52.5417 43.0541C53.1531 43.0466 53.7431 43.2785 54.1859 43.7001C54.6035 44.1437 54.8319 44.7324 54.8228 45.3415C54.8136 45.9506 54.5675 46.5322 54.1368 46.963C53.706 47.3937 53.1244 47.6398 52.5153 47.649C51.9062 47.6581 51.3164 47.4297 50.8729 47.0121ZM57.9689 39.9171C57.641 39.5895 57.4177 39.1721 57.3271 38.7175C57.2365 38.2629 57.2828 37.7917 57.4601 37.3635C57.6373 36.9352 57.9376 36.5692 58.323 36.3116C58.7083 36.0541 59.1614 35.9166 59.6249 35.9166C60.0884 35.9166 60.5415 36.0541 60.9268 36.3116C61.3122 36.5692 61.6125 36.9352 61.7898 37.3635C61.967 37.7917 62.0133 38.2629 61.9227 38.7175C61.8322 39.1721 61.6088 39.5895 61.2809 39.9171C60.8416 40.3561 60.2459 40.6026 59.6249 40.6026C59.0039 40.6026 58.4083 40.3561 57.9689 39.9171ZM57.9689 47.0121C57.5513 46.5686 57.3229 45.9798 57.3321 45.3707C57.3412 44.7616 57.5873 44.18 58.018 43.7493C58.4488 43.3185 59.0304 43.0724 59.6395 43.0633C60.2486 43.0541 60.8374 43.2825 61.2809 43.7001C61.6985 44.1437 61.9269 44.7324 61.9178 45.3415C61.9086 45.9506 61.6625 46.5322 61.2318 46.963C60.801 47.3937 60.2194 47.6398 59.6103 47.649C59.0012 47.6581 58.4124 47.4297 57.9689 47.0121Z" fill="#3F9CBB"/>
</svg>
