<svg width="67" height="67" viewBox="0 0 67 67" fill="none" xmlns="http://www.w3.org/2000/svg">
<path d="M0.91789 50.848C1.03189 52.571 1.14989 54.348 1.26389 56.184L1.26689 56.222L1.71489 62.26C1.77489 63.07 2.12689 63.796 2.66589 64.335C3.20589 64.875 3.93189 65.227 4.74089 65.287L10.7789 65.734L10.8169 65.737C22.9029 66.492 32.0539 66.968 39.7669 66.221C48.7739 65.348 55.1359 62.776 59.7869 58.125C68.1999 49.712 68.1849 36.516 59.7529 28.084C55.9629 24.294 50.7939 21.974 45.4429 21.558C45.0279 16.206 42.7069 11.038 38.9169 7.24797C30.4839 -1.18503 17.2879 -1.20003 8.87489 7.21397C-1.29511 17.384 -0.41511 30.697 0.91789 50.848ZM21.3599 27.122L27.5319 33.295L33.6919 27.136L39.8639 33.309L33.7039 39.467L39.8769 45.64L33.7189 51.798L27.5459 45.626L21.3879 51.784L15.2149 45.612L21.3739 39.453L15.2009 33.281L21.3599 27.122Z" fill="#E6A532"/>
</svg>
