<svg width="55" height="87" viewBox="0 0 55 87" fill="none" xmlns="http://www.w3.org/2000/svg">
<path d="M31.834 41.6269C36.614 46.4069 44.934 47.3809 51.091 41.2239C56.291 36.0249 56.289 27.5669 51.091 22.3689L33.151 4.42795C28.335 -0.386054 20.02 -1.30005 13.892 4.82995C9.19098 9.52995 8.74098 16.8959 12.54 22.1069L6.27498 28.3719C4.93598 29.7109 5.95798 32.0159 7.85998 31.9049L21.334 31.1279L31.834 41.6269ZM43.238 30.1439C43.4813 30.3811 43.6752 30.6643 43.8082 30.9769C43.9413 31.2896 44.011 31.6256 44.0132 31.9654C44.0154 32.3052 43.9502 32.6421 43.8212 32.9565C43.6922 33.2709 43.5021 33.5565 43.2619 33.7969C43.0217 34.0372 42.7361 34.2275 42.4218 34.3566C42.1075 34.4858 41.7707 34.5512 41.4309 34.5492C41.0911 34.5471 40.755 34.4777 40.4423 34.3447C40.1295 34.2118 39.8463 34.0182 39.609 33.7749C39.1275 33.2936 38.8569 32.6406 38.8568 31.9598C38.8567 31.2789 39.1271 30.6259 39.6085 30.1444C40.0899 29.6629 40.7428 29.3924 41.4236 29.3923C42.1045 29.3922 42.7565 29.6626 43.238 30.1439ZM21.745 15.9089C21.4985 15.6724 21.3017 15.3891 21.1661 15.0756C21.0305 14.7621 20.9589 14.4246 20.9553 14.083C20.9518 13.7414 21.0165 13.4026 21.1457 13.0863C21.2748 12.7701 21.4657 12.4828 21.7073 12.2413C21.9489 11.9998 22.2363 11.8089 22.5525 11.6799C22.8688 11.5508 23.2077 11.4862 23.5493 11.4898C23.8909 11.4934 24.2283 11.5652 24.5418 11.7008C24.8553 11.8365 25.1385 12.0334 25.375 12.2799C25.8464 12.7634 26.1084 13.4131 26.1041 14.0883C26.0999 14.7635 25.8298 15.4098 25.3523 15.8873C24.8749 16.3648 24.2285 16.6349 23.5533 16.6391C22.8781 16.6433 22.2284 16.3804 21.745 15.9089ZM34.307 21.2119C34.5503 21.4492 34.744 21.7324 34.877 22.0451C35.01 22.3578 35.0796 22.6938 35.0817 23.0336C35.0839 23.3734 35.0185 23.7103 34.8894 24.0246C34.7604 24.339 34.5702 24.6246 34.3299 24.8649C34.0896 25.1052 33.804 25.2954 33.4897 25.4244C33.1753 25.5535 32.8385 25.6188 32.4987 25.6167C32.1588 25.6146 31.8228 25.545 31.5101 25.412C31.1974 25.279 30.9142 25.0852 30.677 24.8419C30.2056 24.3585 29.9436 23.7088 29.9478 23.0336C29.9521 22.3584 30.2222 21.7121 30.6996 21.2346C31.1771 20.7571 31.8234 20.487 32.4987 20.4828C33.1739 20.4785 33.8236 20.7405 34.307 21.2119ZM41.16 58.6979L23.219 40.7559C18.021 35.5589 9.56098 35.5589 4.36198 40.7569C-1.71002 46.8299 -0.89802 55.1569 3.95998 60.0149L14.459 70.5149L13.682 83.9879C13.572 85.8739 15.868 86.9189 17.215 85.5719L23.48 79.3069C28.692 83.1069 36.057 82.6559 40.757 77.9549C46.817 71.8959 46.031 63.5689 41.16 58.6979ZM11.813 52.2399C11.5746 52.0016 11.3854 51.7186 11.2564 51.4072C11.1273 51.0957 11.0609 50.7619 11.0608 50.4248C11.0608 50.0877 11.1271 49.7538 11.2561 49.4424C11.3851 49.1309 11.5741 48.8479 11.8125 48.6094C12.0508 48.371 12.3338 48.1819 12.6452 48.0528C12.9567 47.9238 13.2905 47.8573 13.6276 47.8573C13.9648 47.8572 14.2986 47.9236 14.6101 48.0526C14.9215 48.1815 15.2046 48.3706 15.443 48.6089C15.9144 49.0924 16.1764 49.7421 16.1721 50.4173C16.1679 51.0925 15.8978 51.7388 15.4203 52.2163C14.9429 52.6938 14.2965 52.9639 13.6213 52.9681C12.9461 52.9723 12.2964 52.7104 11.813 52.2389V52.2399ZM20.745 61.1709C20.4985 60.9344 20.3017 60.6511 20.1661 60.3376C20.0305 60.024 19.9589 59.6866 19.9553 59.345C19.9518 59.0034 20.0165 58.6646 20.1457 58.3483C20.2748 58.0321 20.4657 57.7448 20.7073 57.5033C20.9489 57.2618 21.2363 57.0709 21.5525 56.9419C21.8688 56.8128 22.2077 56.7482 22.5493 56.7518C22.8909 56.7554 23.2283 56.8272 23.5418 56.9628C23.8553 57.0985 24.1385 57.2954 24.375 57.5419C24.8464 58.0254 25.1084 58.6751 25.1041 59.3503C25.0999 60.0255 24.8298 60.6718 24.3523 61.1493C23.8749 61.6268 23.2285 61.8969 22.5533 61.9011C21.8781 61.9053 21.2284 61.6424 20.745 61.1709ZM29.677 70.1039C29.4386 69.8656 29.2494 69.5826 29.1204 69.2712C28.9913 68.9597 28.9249 68.6259 28.9248 68.2888C28.9248 67.9517 28.9911 67.6178 29.1201 67.3064C29.2491 66.9949 29.4381 66.7119 29.6765 66.4734C29.9148 66.235 30.1978 66.0459 30.5092 65.9168C30.8207 65.7878 31.1545 65.7213 31.4916 65.7213C31.8287 65.7213 32.1626 65.7876 32.4741 65.9166C32.7855 66.0455 33.0686 66.2346 33.307 66.4729C33.7784 66.9564 34.0404 67.6061 34.0361 68.2813C34.0319 68.9565 33.7618 69.6028 33.2843 70.0803C32.8069 70.5578 32.1605 70.8279 31.4853 70.8321C30.8101 70.8363 30.1604 70.5754 29.677 70.1039Z" fill="#5A1CBB"/>
</svg>
