<svg width="79" height="79" viewBox="0 0 79 79" fill="none" xmlns="http://www.w3.org/2000/svg">
<path d="M33.2271 1.49495C33.4008 1.3211 33.607 1.18317 33.834 1.08907C34.061 0.994969 34.3044 0.946533 34.5501 0.946533C34.7958 0.946533 35.0392 0.994969 35.2662 1.08907C35.4932 1.18317 35.6994 1.3211 35.8731 1.49495L37.1961 2.81795L9.41611 30.598C7.22711 32.787 7.31611 36.435 9.50411 38.624L21.6361 50.756C21.1375 51.8037 20.9751 52.9801 21.1714 54.1237C21.3676 55.2674 21.9127 56.3223 22.7321 57.144C23.5537 57.9637 24.6088 58.5092 25.7527 58.7056C26.8965 58.902 28.0731 58.7397 29.1211 58.241L41.2531 70.373C43.4411 72.561 47.0901 72.649 49.2781 70.461L77.0581 42.681L78.3811 44.003C78.555 44.1766 78.6929 44.3829 78.787 44.6099C78.8811 44.8369 78.9295 45.0802 78.9295 45.326C78.9295 45.5717 78.8811 45.815 78.787 46.042C78.6929 46.269 78.555 46.4753 78.3811 46.649L46.6321 78.4C46.4585 78.5737 46.2523 78.7115 46.0254 78.8055C45.7984 78.8995 45.5552 78.9479 45.3096 78.9479C45.064 78.9479 44.8208 78.8995 44.5939 78.8055C44.3669 78.7115 44.1608 78.5737 43.9871 78.4L29.1201 63.531C28.0721 64.0297 26.8955 64.192 25.7517 63.9956C24.6078 63.7992 23.5527 63.2537 22.7311 62.434L17.4401 57.143C16.6206 56.3214 16.0752 55.2665 15.8788 54.1229C15.6824 52.9792 15.8446 51.8028 16.3431 50.755L1.47811 35.89C1.30425 35.7163 1.16633 35.51 1.07223 35.283C0.978123 35.056 0.929687 34.8127 0.929688 34.567C0.929688 34.3212 0.978123 34.0779 1.07223 33.8509C1.16633 33.6239 1.30425 33.4176 1.47811 33.244L33.2271 1.49495ZM59.7401 22.783C61.6881 23.053 63.5701 23.9 65.0651 25.395L75.6481 35.978C75.822 36.1516 75.9599 36.3579 76.054 36.5849C76.1481 36.8119 76.1965 37.0552 76.1965 37.301C76.1965 37.5467 76.1481 37.79 76.054 38.017C75.9599 38.244 75.822 38.4503 75.6481 38.624L46.5441 67.727C46.3704 67.9008 46.1642 68.0387 45.9372 68.1328C45.7102 68.2269 45.4668 68.2754 45.2211 68.2754C44.9754 68.2754 44.732 68.2269 44.505 68.1328C44.278 68.0387 44.0718 67.9008 43.8981 67.727L30.6701 54.498C30.3191 54.1473 29.8432 53.9504 29.3471 53.9504C28.851 53.9504 28.3751 54.1473 28.0241 54.498L59.7401 22.783ZM49.1901 6.87495C49.3638 6.70095 49.5701 6.5629 49.7972 6.46871C50.0243 6.37452 50.2677 6.32603 50.5136 6.32603C50.7595 6.32603 51.0029 6.37452 51.23 6.46871C51.4571 6.5629 51.6634 6.70095 51.8371 6.87495C56.3261 11.364 57.7141 15.855 58.0151 19.217L27.6701 49.56C28.0191 48.033 28.8511 42.097 22.7321 35.978C22.5583 35.8043 22.4203 35.598 22.3262 35.371C22.2321 35.144 22.1837 34.9007 22.1837 34.655C22.1837 34.4092 22.2321 34.1659 22.3262 33.9389C22.4203 33.7119 22.5583 33.5056 22.7321 33.332L49.1901 6.87495ZM41.2541 4.22895C41.4278 4.05525 41.6339 3.91745 41.8609 3.82344C42.0878 3.72942 42.331 3.68103 42.5766 3.68103C42.8222 3.68103 43.0654 3.72942 43.2924 3.82344C43.5193 3.91745 43.7255 4.05525 43.8991 4.22895L45.2221 5.55195L20.0881 30.686C19.0369 31.7394 18.4466 33.1668 18.4466 34.655C18.4466 36.1431 19.0369 37.5705 20.0881 38.624C24.0931 42.629 24.2881 46.32 24.1311 47.959L12.1501 35.978C11.9762 35.8043 11.8383 35.598 11.7442 35.371C11.6501 35.144 11.6017 34.9007 11.6017 34.655C11.6017 34.4092 11.6501 34.1659 11.7442 33.9389C11.8383 33.7119 11.9762 33.5056 12.1501 33.332L41.2541 4.22895Z" fill="#F04667"/>
</svg>
