<svg width="79" height="79" viewBox="0 0 79 79" fill="none" xmlns="http://www.w3.org/2000/svg">
<path d="M18.687 10.43L34.151 41.336C34.461 42.018 34.894 42.658 35.451 43.216C36.009 43.773 36.649 44.206 37.165 44.433L68.237 59.98L52.484 75.732C51.7387 76.4781 50.8537 77.0699 49.8795 77.4738C48.9053 77.8776 47.8611 78.0854 46.8065 78.0854C45.752 78.0854 44.7077 77.8776 43.7335 77.4738C42.7594 77.0699 41.8743 76.4781 41.129 75.732L2.93402 37.538C2.18779 36.7927 1.59579 35.9076 1.19188 34.9333C0.787976 33.959 0.580078 32.9147 0.580078 31.86C0.580078 30.8053 0.787976 29.761 1.19188 28.7867C1.59579 27.8124 2.18779 26.9273 2.93402 26.182L18.687 10.43ZM38.032 2.43999L48.871 13.278L50.936 11.214C52.0318 10.1203 53.5168 9.50606 55.065 9.50606C56.6132 9.50606 58.0982 10.1203 59.194 11.214L67.452 19.473C68.5457 20.5688 69.1599 22.0538 69.1599 23.602C69.1599 25.1502 68.5457 26.6352 67.452 27.731L65.388 29.795L76.227 40.635C76.9731 41.3803 77.565 42.2653 77.9688 43.2395C78.3726 44.2137 78.5805 45.2579 78.5805 46.3125C78.5805 47.367 78.3726 48.4113 77.9688 49.3855C77.565 50.3596 76.9731 51.2447 76.227 51.99L71.499 56.718L39.126 40.53C38.9098 40.4286 38.714 40.2887 38.548 40.117C38.3763 39.951 38.2364 39.7552 38.135 39.539L21.95 7.16799L26.678 2.43999C27.4233 1.69391 28.3084 1.10204 29.2825 0.698218C30.2567 0.294399 31.301 0.0865479 32.3555 0.0865479C33.4101 0.0865479 34.4543 0.294399 35.4285 0.698218C36.4027 1.10204 37.2867 1.69391 38.032 2.43999ZM55.065 15.343L53.001 17.408L61.259 25.666L63.323 23.602L55.065 15.343Z" fill="#D96C47"/>
</svg>
